<svg width="27.100098" height="27.416504" viewBox="0 0 27.1001 27.4165" fill="none" xmlns="http://www.w3.org/2000/svg" xmlns:xlink="http://www.w3.org/1999/xlink">
	<desc>
			Created with Pixso.
	</desc>
	<defs/>
	<path id="Vector" d="M0.878479 0L0.868103 0C0.742523 0.000488281 0.61853 0.0317383 0.504639 0.0913086C0.390747 0.150879 0.289612 0.237305 0.208191 0.344727C0.12674 0.452637 0.066925 0.578613 0.0328064 0.714355C-0.00131226 0.850586 -0.00894165 0.993164 0.010498 1.13281L3.69611 26.3081C3.7905 26.9419 4.27997 27.4106 4.85138 27.4165L22.536 27.4165C22.7438 27.4189 22.9456 27.3374 23.1048 27.187C23.2639 27.0366 23.3701 26.8271 23.404 26.5967L27.0896 1.1377C27.109 0.998047 27.1014 0.855469 27.0674 0.719727C27.0333 0.583496 26.9736 0.45752 26.8922 0.350098C26.8109 0.242676 26.7099 0.155762 26.5962 0.0961914C26.4824 0.0366211 26.3585 0.00537109 26.233 0.00488281L26.2216 0.00488281L0.878479 0ZM16.4008 18.1943L10.7563 18.1943L9.22766 9.21191L17.7687 9.21191L16.3998 18.1953L16.4008 18.1943Z" fill="#FFFFFF" fill-opacity="1.000000" fill-rule="nonzero"/>
</svg>
