<svg width="28.001343" height="27.067383" viewBox="0 0 28.0013 27.0674" fill="none" xmlns="http://www.w3.org/2000/svg" xmlns:xlink="http://www.w3.org/1999/xlink">
	<desc>
			Created with Pixso.
	</desc>
	<defs/>
	<path id="Vector" d="M14.0682 0C10.7164 0.000976562 7.47818 1.1748 4.95181 3.3042C2.39648 5.45898 0.707855 8.41504 0.182159 11.6538C-0.353699 14.9038 0.30127 18.2324 2.03403 21.0654C3.74496 23.8701 6.4375 25.9912 9.62491 27.0444C10.3326 27.1724 10.5827 26.7373 10.5827 26.3711L10.5827 24.0117C6.6579 24.8545 5.82947 22.146 5.82947 22.146C5.57272 21.3115 5.01996 20.5908 4.26822 20.1104C2.99954 19.2583 4.37155 19.2583 4.37155 19.2583C4.81567 19.3208 5.24051 19.4824 5.61224 19.7295C5.98492 19.9771 6.29486 20.3057 6.51981 20.6899C6.71002 21.0317 6.9678 21.332 7.27679 21.5757C7.73779 21.9429 8.30338 22.165 8.89838 22.2139C9.49335 22.2627 10.0896 22.1353 10.6078 21.8486C10.6628 21.1475 10.9689 20.4888 11.471 19.9912C8.34851 19.6421 5.06961 18.4492 5.06961 13.1777C5.0462 11.8052 5.56125 10.4751 6.51114 9.45459C6.08984 8.25635 6.13898 6.94971 6.6492 5.78369C6.6492 5.78369 7.83099 5.40869 10.5132 7.20605C12.8152 6.58154 15.2507 6.58154 17.5528 7.20605C20.236 5.40869 21.4091 5.78369 21.4091 5.78369C21.9266 6.93457 21.9884 8.23584 21.5819 9.42969C22.5312 10.4497 23.0458 11.7793 23.0224 13.1514C23.0224 18.4839 19.7358 19.6504 16.6037 19.9648C16.9397 20.2988 17.1994 20.6997 17.3645 21.1411C17.5287 21.5815 17.5962 22.0518 17.5615 22.5215L17.5615 26.3286C17.5615 26.7803 17.8125 27.1294 18.527 26.9932C21.6783 25.9121 24.3307 23.7856 26.0117 20.9917C27.7138 18.1699 28.3519 14.8657 27.8172 11.6406C27.2926 8.42676 25.6225 5.49072 23.0958 3.34131C20.598 1.21777 17.3944 0.0322266 14.0682 0Z" fill="#F9F9F9" fill-opacity="1.000000" fill-rule="evenodd"/>
</svg>
