<svg width="27.000000" height="27.000000" viewBox="0 0 27 27" fill="none" xmlns="http://www.w3.org/2000/svg" xmlns:xlink="http://www.w3.org/1999/xlink">
	<desc>
			Created with Pixso.
	</desc>
	<defs>
		<clipPath id="clip1_955">
			<rect id="Frame" width="27.000000" height="27.000000" fill="white" fill-opacity="0"/>
		</clipPath>
	</defs>
	<g clip-path="url(#clip1_955)">
		<path id="Vector" d="M4.26483 12.1318C4.22241 12.1318 4.21179 12.1079 4.23303 12.0718L4.45581 11.748C4.47705 11.7119 4.53009 11.688 4.57251 11.688L8.35992 11.688C8.40234 11.688 8.41296 11.7241 8.39178 11.7598L8.21143 12.0718C8.19019 12.1079 8.13715 12.144 8.10535 12.144L4.26483 12.1318Z" fill="#00ACD7" fill-opacity="1.000000" fill-rule="nonzero"/>
		<path id="Vector" d="M2.66284 13.2358C2.62042 13.2358 2.6098 13.2119 2.63104 13.1758L2.85382 12.8521C2.87506 12.8159 2.9281 12.792 2.97052 12.792L7.80823 12.792C7.85071 12.792 7.87189 12.8281 7.86127 12.8638L7.77643 13.1519C7.76581 13.2002 7.72339 13.2241 7.68091 13.2241L2.66284 13.2358Z" fill="#00ACD7" fill-opacity="1.000000" fill-rule="nonzero"/>
		<path id="Vector" d="M5.23022 14.3398C5.18781 14.3398 5.17719 14.3042 5.19843 14.2681L5.34692 13.9678C5.36816 13.9321 5.41058 13.896 5.453 13.896L7.57483 13.896C7.61725 13.896 7.63849 13.9321 7.63849 13.98L7.61725 14.2681C7.61725 14.3159 7.57483 14.3521 7.54303 14.3521L5.23022 14.3398Z" fill="#00ACD7" fill-opacity="1.000000" fill-rule="nonzero"/>
		<path id="Vector" d="M16.2424 11.916C15.574 12.1079 15.1179 12.252 14.4601 12.4438C14.301 12.4917 14.2903 12.5039 14.1525 12.3237C13.9933 12.1196 13.8766 11.9878 13.6538 11.8677C12.9855 11.4961 12.3383 11.604 11.7336 12.0479C11.0121 12.5757 10.6409 13.356 10.6515 14.3276C10.662 15.2881 11.2455 16.0801 12.0837 16.2119C12.8051 16.3198 13.4098 16.0317 13.8872 15.4199C13.9827 15.2881 14.0676 15.144 14.1736 14.9761C13.7917 14.9761 13.3143 14.9761 12.1261 14.9761C11.9033 14.9761 11.8503 14.8198 11.9246 14.6157C12.0624 14.2437 12.3171 13.6196 12.4656 13.3081C12.4974 13.2358 12.5717 13.1157 12.7308 13.1157C13.2719 13.1157 15.2664 13.1157 16.5925 13.1157C16.5713 13.4399 16.5713 13.7637 16.5289 14.0879C16.4122 14.9517 16.1257 15.7437 15.6589 16.4399C14.8951 17.5801 13.8978 18.2881 12.6354 18.48C11.5956 18.6357 10.6302 18.4077 9.78149 17.688C8.99646 17.0161 8.5509 16.1279 8.4342 15.0239C8.29626 13.7158 8.63574 12.54 9.33594 11.5078C10.0892 10.3921 11.0864 9.68408 12.3065 9.43164C13.3037 9.22803 14.2585 9.35986 15.1179 10.02C15.6802 10.4399 16.0833 11.0161 16.3485 11.7119C16.4122 11.8198 16.3698 11.8799 16.2424 11.916Z" fill="#00ACD7" fill-opacity="1.000000" fill-rule="nonzero"/>
		<path id="Vector" d="M19.754 18.5522C18.7886 18.5283 17.908 18.2163 17.1654 17.4961C16.5394 16.8843 16.1469 16.104 16.0196 15.1802C15.8287 13.8242 16.1575 12.624 16.879 11.5562C17.6534 10.4043 18.587 9.8042 19.8495 9.55225C20.9316 9.33594 21.9501 9.45605 22.873 10.1641C23.7112 10.812 24.231 11.688 24.3689 12.8398C24.5493 14.46 24.1356 15.7803 23.1489 16.9082C22.4487 17.7119 21.5894 18.2163 20.6027 18.4438C20.3163 18.5039 20.0298 18.5161 19.754 18.5522ZM22.2789 13.7041C22.2683 13.5479 22.2683 13.4282 22.2471 13.3081C22.0562 12.1201 21.0908 11.4482 20.0829 11.7119C19.0963 11.9639 18.4597 12.6719 18.2263 13.8003C18.0353 14.7358 18.4385 15.6841 19.2023 16.0679C19.7858 16.356 20.3693 16.3203 20.9316 15.9961C21.7697 15.5039 22.2259 14.7358 22.2789 13.7041Z" fill="#00ACD7" fill-opacity="1.000000" fill-rule="nonzero"/>
	</g>
</svg>
