<svg width="27.000000" height="27.000000" viewBox="0 0 27 27" fill="none" xmlns="http://www.w3.org/2000/svg" xmlns:xlink="http://www.w3.org/1999/xlink">
	<desc>
			Created with Pixso.
	</desc>
	<defs/>
	<path id="Vector" d="M0 0L27 0L27 27L0 27L0 0Z" fill="#FFFFFF" fill-opacity="1.000000" fill-rule="evenodd"/>
	<path id="Vector" d="M11.258 14.2495C11.258 14.2495 10.6131 14.6245 11.7174 14.7515C13.0557 14.9043 13.7393 14.8823 15.2135 14.6035C15.2135 14.6035 15.6016 14.8462 16.1434 15.0566C12.8376 16.4731 8.66168 14.9746 11.258 14.2495ZM10.8539 12.4009C10.8539 12.4009 10.1304 12.9365 11.2357 13.0508C12.6653 13.1982 13.7937 13.2104 15.7476 12.8345C15.7476 12.8345 16.0174 13.1084 16.442 13.2578C12.4455 14.4268 7.99451 13.3496 10.8539 12.4009Z" fill="#3174B9" fill-opacity="1.000000" fill-rule="evenodd"/>
	<path id="Vector" d="M14.259 9.26514C15.0739 10.2031 14.0453 11.0469 14.0453 11.0469C14.0453 11.0469 16.1137 9.97949 15.1637 8.64209C14.2767 7.39551 13.5964 6.77637 17.2792 4.64062C17.279 4.64062 11.4982 6.08398 14.259 9.26514Z" fill="#CA3132" fill-opacity="1.000000" fill-rule="evenodd"/>
	<path id="Vector" d="M18.6312 15.6172C18.6312 15.6172 19.1085 16.0107 18.1053 16.3149C16.1977 16.8931 10.164 17.0669 8.48804 16.3379C7.88599 16.0757 9.01556 15.7124 9.37091 15.6357C9.74152 15.5557 9.95306 15.5698 9.95306 15.5698C9.28308 15.0981 5.62256 16.4966 8.09399 16.8979C14.8332 17.9907 20.379 16.4058 18.6312 15.6172ZM11.5682 10.4854C11.5682 10.4854 8.49951 11.2148 10.4817 11.4795C11.3189 11.5918 12.9866 11.5659 14.5413 11.4355C15.8115 11.3286 17.0864 11.1006 17.0864 11.1006C17.0864 11.1006 16.6389 11.293 16.3146 11.5137C13.1979 12.3335 7.1778 11.9517 8.91107 11.1138C10.3765 10.4048 11.5682 10.4854 11.5682 10.4854ZM17.0737 13.5625C20.2417 11.9165 18.777 10.3345 17.7543 10.5479C17.5043 10.6001 17.3921 10.645 17.3921 10.645C17.3921 10.645 17.4854 10.4995 17.6627 10.4365C19.6855 9.72559 21.2408 12.5337 17.0105 13.646C17.0104 13.646 17.0591 13.6021 17.0737 13.5625Z" fill="#3174B9" fill-opacity="1.000000" fill-rule="evenodd"/>
	<path id="Vector" d="M15.1638 1.19141C15.1638 1.19141 16.918 2.94678 13.4996 5.64502C10.7582 7.81006 12.8746 9.04443 13.4987 10.4551C11.8983 9.01123 10.7243 7.74023 11.5118 6.55713C12.668 4.82129 15.8716 3.979 15.1638 1.19141Z" fill="#CA3132" fill-opacity="1.000000" fill-rule="evenodd"/>
	<path id="Vector" d="M11.8798 18.0239C14.9203 18.2183 19.5902 17.9155 19.701 16.4766C19.701 16.4766 19.4884 17.022 17.1879 17.4546C14.5925 17.9434 11.3909 17.8867 9.49255 17.5732C9.49255 17.5732 9.88153 17.895 11.8798 18.0239Z" fill="#3174B9" fill-opacity="1.000000" fill-rule="evenodd"/>
	<path id="Vector" d="M19.5605 20.6045L19.4681 20.6045L19.4681 20.5522L19.7176 20.5522L19.7176 20.6045L19.6251 20.6045L19.6251 20.8633L19.5605 20.8633L19.5605 20.6045ZM20.0583 20.6172L20.0573 20.6172L19.9653 20.8628L19.9232 20.8628L19.8318 20.6172L19.8307 20.6172L19.8307 20.8628L19.7694 20.8628L19.7694 20.5522L19.8594 20.5522L19.9441 20.772L20.0287 20.5522L20.1179 20.5522L20.1179 20.8628L20.0585 20.8628L20.0585 20.6172L20.0583 20.6172ZM11.3816 23.5215C11.0949 23.77 10.7917 23.9097 10.5196 23.9097C10.1319 23.9097 9.92151 23.6768 9.92151 23.3037C9.92151 22.9004 10.1467 22.605 11.0482 22.605L11.3815 22.605L11.3815 23.5215L11.3816 23.5215ZM12.173 24.4141L12.173 21.6504C12.173 20.9438 11.7702 20.4775 10.7991 20.4775C10.2324 20.4775 9.73578 20.6177 9.33191 20.7959L9.44818 21.2856C9.7663 21.1685 10.1776 21.0605 10.5812 21.0605C11.1407 21.0605 11.3815 21.2856 11.3815 21.7515L11.3815 22.1011L11.1019 22.1011C9.74292 22.1011 9.12964 22.6284 9.12964 23.4209C9.12964 24.104 9.53375 24.4922 10.2945 24.4922C10.7835 24.4922 11.1488 24.2905 11.4899 23.9951L11.5519 24.4141L12.173 24.4141ZM14.8144 24.4141L13.8276 24.4141L12.6393 20.5479L13.5013 20.5479L14.2388 22.9238L14.403 23.6377C14.775 22.605 15.0391 21.5571 15.1712 20.5479L16.0094 20.5479C15.785 21.8208 15.3807 23.2188 14.8144 24.4141ZM18.6016 23.5215C18.314 23.77 18.0109 23.9097 17.7393 23.9097C17.3516 23.9097 17.1415 23.6768 17.1415 23.3037C17.1415 22.9004 17.3668 22.605 18.2678 22.605L18.6016 22.605L18.6016 23.5215ZM19.3933 24.4141L19.3933 21.6504C19.3933 20.9438 18.9892 20.4775 18.019 20.4775C17.4518 20.4775 16.9553 20.6177 16.5515 20.7959L16.6677 21.2856C16.9858 21.1685 17.3979 21.0605 17.8018 21.0605C18.3604 21.0605 18.6014 21.2856 18.6014 21.7515L18.6014 22.1011L18.3219 22.1011C16.9627 22.1011 16.3499 22.6284 16.3499 23.4209C16.3499 24.104 16.7532 24.4922 17.514 24.4922C18.0035 24.4922 18.3682 24.2905 18.7101 23.9951L18.7725 24.4141L19.3933 24.4141ZM8.2619 25.0713C8.03638 25.4009 7.67163 25.6616 7.27283 25.8086L6.88202 25.3486C7.18585 25.1929 7.44611 24.9409 7.56726 24.7065C7.67163 24.498 7.71521 24.2295 7.71521 23.5874L7.71521 19.1729L8.55634 19.1729L8.55634 23.5264C8.55634 24.3857 8.48767 24.7329 8.2619 25.0713Z" fill="#CA3132" fill-opacity="1.000000" fill-rule="evenodd"/>
</svg>
