<svg width="27.000000" height="27.000000" viewBox="0 0 27 27" fill="none" xmlns="http://www.w3.org/2000/svg" xmlns:xlink="http://www.w3.org/1999/xlink">
	<desc>
			Created with Pixso.
	</desc>
	<defs>
		<clipPath id="clip1_922">
			<rect id="Frame" width="27.000000" height="27.000000" fill="white" fill-opacity="0"/>
		</clipPath>
	</defs>
	<g clip-path="url(#clip1_922)">
		<path id="Vector" d="M2.63672 0L24.3633 0C25.8195 0 27 1.18066 27 2.63672L27 24.3633C27 25.8193 25.8195 27 24.3633 27L2.63672 27C1.18048 27 0 25.8193 0 24.3633L0 2.63672C0 1.18066 1.18048 0 2.63672 0Z" fill="#3178C6" fill-opacity="1.000000" fill-rule="evenodd"/>
		<path id="Vector" d="M2.63672 0L24.3633 0C25.8195 0 27 1.18066 27 2.63672L27 24.3633C27 25.8193 25.8195 27 24.3633 27L2.63672 27C1.18048 27 0 25.8193 0 24.3633L0 2.63672C0 1.18066 1.18048 0 2.63672 0Z" fill="#3178C6" fill-opacity="1.000000" fill-rule="evenodd"/>
		<path id="Vector" d="M16.7136 21.4854L16.7136 24.125C17.1428 24.3452 17.6503 24.5103 18.2363 24.6201C18.8223 24.73 19.4398 24.7852 20.0891 24.7852C20.7219 24.7852 21.3229 24.7246 21.8924 24.6035C22.4619 24.4829 22.9612 24.2832 23.3904 24.0054C23.8195 23.728 24.1593 23.3647 24.4096 22.9165C24.66 22.4683 24.7852 21.9141 24.7852 21.2544C24.7852 20.7759 24.7136 20.3564 24.5706 19.9961C24.4275 19.6357 24.2212 19.3154 23.9516 19.0352C23.682 18.7544 23.3588 18.5029 22.9819 18.2803C22.605 18.0576 22.1799 17.8472 21.7067 17.6489C21.3601 17.5063 21.0493 17.3672 20.7741 17.2324C20.499 17.0977 20.2652 16.9604 20.0726 16.8198C19.88 16.6797 19.7314 16.5312 19.627 16.3745C19.5224 16.2178 19.4701 16.0405 19.4701 15.8423C19.4701 15.6611 19.5169 15.4971 19.6104 15.3516C19.704 15.2056 19.8361 15.0806 20.0066 14.9761C20.1772 14.8716 20.3862 14.7905 20.6338 14.7329C20.8815 14.6753 21.1565 14.646 21.4592 14.646C21.6792 14.646 21.9117 14.6626 22.1565 14.6958C22.4014 14.7285 22.6476 14.7798 22.8952 14.8481C23.1428 14.917 23.3835 15.0039 23.6174 15.1084C23.8512 15.2129 24.0671 15.3335 24.2652 15.4712L24.2652 13.0044C23.8636 12.8506 23.4247 12.7363 22.9489 12.6621C22.4729 12.5879 21.9268 12.5508 21.3106 12.5508C20.6833 12.5508 20.0891 12.6182 19.5279 12.7529C18.9667 12.8877 18.4729 13.0981 18.0464 13.3838C17.6201 13.6699 17.2831 14.0342 17.0355 14.4771C16.7879 14.9199 16.6641 15.4492 16.6641 16.0649C16.6641 16.8516 16.8911 17.5225 17.345 18.0781C17.7988 18.6338 18.488 19.104 19.4124 19.4888C19.7755 19.6372 20.1139 19.7832 20.4275 19.9263C20.7411 20.0688 21.0121 20.2178 21.2404 20.3716C21.4688 20.5254 21.6489 20.6934 21.781 20.875C21.9131 21.0562 21.9791 21.2627 21.9791 21.4937C21.9791 21.6641 21.9378 21.8223 21.8553 21.9678C21.7728 22.1138 21.6476 22.2402 21.4797 22.3472C21.312 22.4546 21.1028 22.5386 20.8525 22.5991C20.6022 22.6597 20.3092 22.6899 19.9736 22.6899C19.4014 22.6899 18.8347 22.5894 18.2734 22.3887C17.7122 22.188 17.1923 21.8867 16.7136 21.4854ZM12.2755 14.981L15.6621 14.981L15.6621 12.8145L6.22266 12.8145L6.22266 14.981L9.59271 14.981L9.59271 24.627L12.2755 24.627L12.2755 14.981Z" fill="#FFFFFF" fill-opacity="1.000000" fill-rule="evenodd"/>
	</g>
</svg>
