<svg width="27.000000" height="27.000000" viewBox="0 0 27 27" fill="none" xmlns="http://www.w3.org/2000/svg" xmlns:xlink="http://www.w3.org/1999/xlink">
	<desc>
			Created with Pixso.
	</desc>
	<defs>
		<linearGradient id="paint_linear_1_884_0" x1="2.594752" y1="2.360037" x2="15.945463" y2="15.825525" gradientUnits="userSpaceOnUse">
			<stop stop-color="#387EB8"/>
			<stop offset="1.000000" stop-color="#366994"/>
		</linearGradient>
		<linearGradient id="paint_linear_1_885_0" x1="10.807542" y1="10.926219" x2="25.146252" y2="24.735344" gradientUnits="userSpaceOnUse">
			<stop stop-color="#FFE052"/>
			<stop offset="1.000000" stop-color="#FFC331"/>
		</linearGradient>
	</defs>
	<path id="path8615" d="M13.4026 0C6.5484 0 6.97644 2.98779 6.97644 2.98779L6.98407 6.0835L13.5249 6.0835L13.5249 7.0127L4.38605 7.0127C4.38605 7.0127 0 6.5127 0 13.4653C0 20.4175 3.82825 20.1709 3.82825 20.1709L6.11298 20.1709L6.11298 16.9448C6.11298 16.9448 5.98981 13.0967 9.88007 13.0967C13.7703 13.0967 16.3674 13.0967 16.3674 13.0967C16.3674 13.0967 20.0123 13.1558 20.0123 9.55518C20.0123 5.95508 20.0123 3.60254 20.0123 3.60254C20.0123 3.60254 20.5657 0 13.4026 0ZM9.79602 2.08154C10.4468 2.08154 10.9728 2.61035 10.9728 3.26465C10.9728 3.91846 10.4468 4.44727 9.79602 4.44727C9.14526 4.44727 8.61926 3.91846 8.61926 3.26465C8.61926 2.61035 9.14526 2.08154 9.79602 2.08154Z" fill="url(#paint_linear_1_884_0)" fill-opacity="1.000000" fill-rule="nonzero"/>
	<path id="path8620" d="M13.5974 27C20.4516 27 20.0236 24.0122 20.0236 24.0122L20.0159 20.9165L13.4751 20.9165L13.4751 19.9873L22.614 19.9873C22.614 19.9873 27 20.4873 27 13.5347C27 6.58252 23.1718 6.8291 23.1718 6.8291L20.887 6.8291L20.887 10.0552C20.887 10.0552 21.0102 13.9038 17.1199 13.9038C13.2297 13.9038 10.6326 13.9038 10.6326 13.9038C10.6326 13.9038 6.98767 13.8442 6.98767 17.4448C6.98767 21.0449 6.98767 23.3975 6.98767 23.3975C6.98767 23.3975 6.43433 27 13.5974 27ZM17.204 24.9185C16.5532 24.9185 16.0272 24.3896 16.0272 23.7354C16.0272 23.0815 16.5532 22.5527 17.204 22.5527C17.8547 22.5527 18.3807 23.0815 18.3807 23.7354C18.3807 24.3896 17.8547 24.9185 17.204 24.9185Z" fill="url(#paint_linear_1_885_0)" fill-opacity="1.000000" fill-rule="nonzero"/>
</svg>
