<svg width="27.000000" height="27.000000" viewBox="0 0 27 27" fill="none" xmlns="http://www.w3.org/2000/svg" xmlns:xlink="http://www.w3.org/1999/xlink">
	<desc>
			Created with Pixso.
	</desc>
	<defs>
		<clipPath id="clip1_896">
			<rect id="Frame" width="27.000000" height="27.000000" fill="white" fill-opacity="0"/>
		</clipPath>
	</defs>
	<g clip-path="url(#clip1_896)">
		<path id="Vector" d="M13.3218 4.43994C8.43561 4.43994 4.45874 8.41846 4.45874 13.3032C4.45874 18.1875 8.4375 22.166 13.3218 22.166C18.2062 22.166 22.185 18.1875 22.185 13.3032C22.185 8.41846 18.2062 4.43994 13.3218 4.43994ZM13.3087 5.22754C13.4603 5.23145 13.6043 5.29443 13.7101 5.40332C13.8159 5.51221 13.8751 5.65869 13.875 5.81055C13.875 5.96533 13.8135 6.11377 13.7042 6.22266C13.5948 6.33203 13.4465 6.39355 13.2919 6.39355C13.1372 6.39355 12.9889 6.33203 12.8795 6.22266C12.7702 6.11377 12.7087 5.96533 12.7087 5.81055C12.7087 5.73242 12.7243 5.65527 12.7547 5.5835C12.785 5.51172 12.8295 5.44629 12.8854 5.39209C12.9414 5.33789 13.0077 5.29541 13.0804 5.26709C13.1531 5.23877 13.2308 5.2251 13.3087 5.22754ZM14.6437 6.1875C15.6674 6.37939 16.6371 6.7915 17.4854 7.39551C18.3337 8 19.0404 8.78125 19.5563 9.68604L18.8681 11.2388C18.75 11.5068 18.8719 11.8218 19.1381 11.9419L20.4619 12.5288C20.5029 12.9424 20.5079 13.3589 20.4769 13.7739L19.74 13.7739C19.6669 13.7739 19.6368 13.8223 19.6368 13.8936L19.6368 14.231C19.6368 15.0264 19.1887 15.2007 18.795 15.2437C18.42 15.2866 18.0056 15.0864 17.9531 14.8574C17.7319 13.6143 17.3644 13.3501 16.7831 12.8906C17.505 12.4331 18.255 11.7563 18.255 10.8525C18.255 9.87549 17.5856 9.26074 17.13 8.9585C16.4888 8.53662 15.78 8.45264 15.5887 8.45264L7.97626 8.45264C9.02887 7.27637 10.4398 6.48047 11.9906 6.1875L12.8887 7.12891C13.0912 7.34033 13.4269 7.3501 13.6387 7.14551L14.6437 6.1875ZM6.35626 10.5039C6.50793 10.5083 6.65198 10.5713 6.75769 10.6802C6.86346 10.7891 6.92255 10.9351 6.92249 11.0869C6.92249 11.2417 6.86108 11.3896 6.75171 11.499C6.64233 11.6084 6.49402 11.6699 6.33936 11.6699C6.18469 11.6699 6.03638 11.6084 5.92706 11.499C5.81769 11.3896 5.75623 11.2417 5.75623 11.0869C5.75623 11.0088 5.77185 10.9316 5.80219 10.8599C5.83252 10.7876 5.87701 10.7227 5.93298 10.6685C5.98889 10.6143 6.05518 10.5713 6.12793 10.543C6.20062 10.5146 6.27826 10.5015 6.35626 10.5039ZM20.2594 10.5298C20.4111 10.5342 20.5551 10.5977 20.6608 10.7065C20.7665 10.8154 20.8257 10.9614 20.8256 11.1133C20.8256 11.2676 20.7642 11.416 20.6548 11.5254C20.5455 11.6348 20.3972 11.6963 20.2425 11.6963C20.0878 11.6963 19.9395 11.6348 19.8301 11.5254C19.7208 11.416 19.6594 11.2676 19.6594 11.1133C19.6594 11.0352 19.675 10.958 19.7053 10.8857C19.7357 10.814 19.7802 10.749 19.8361 10.6948C19.892 10.6401 19.9583 10.5977 20.031 10.5693C20.1038 10.541 20.1814 10.5278 20.2594 10.5298ZM7.45502 10.6235L8.47125 10.6235L8.47125 15.2061L6.41998 15.2061C6.16663 14.3164 6.08771 13.3862 6.1875 12.4668L7.44373 11.9082C7.71185 11.7881 7.83374 11.4751 7.71375 11.207L7.45502 10.6235ZM11.6962 10.6724L14.1169 10.6724C14.2425 10.6724 15 10.8169 15 11.3848C15 11.8555 14.4188 12.0244 13.9406 12.0244L11.6943 12.0244L11.6962 10.6724ZM11.6962 13.9648L13.5506 13.9648C13.7194 13.9648 14.4562 14.0137 14.6906 14.9551C14.7637 15.2437 14.9269 16.1851 15.0375 16.4868C15.1481 16.8242 15.5963 17.4995 16.0743 17.4995L19.1006 17.4995C18.8978 17.771 18.676 18.0278 18.4369 18.2681L17.205 18.0039C16.9181 17.9419 16.635 18.1255 16.5731 18.4126L16.2806 19.7773C15.34 20.2036 14.3185 20.4214 13.286 20.4165C12.2534 20.4121 11.234 20.1841 10.2975 19.7495L10.005 18.3843C9.94312 18.0977 9.66187 17.9136 9.375 17.9756L8.16937 18.2344C7.94562 18.0034 7.73767 17.7578 7.54688 17.4995L13.41 17.4995C13.4756 17.4995 13.5206 17.4883 13.5206 17.4263L13.5206 15.3525C13.5206 15.2925 13.4756 15.2793 13.41 15.2793L11.6943 15.2793L11.6962 13.9648ZM8.9906 18.7144C9.14233 18.7188 9.28638 18.7822 9.39209 18.8911C9.4978 19 9.55695 19.1455 9.55688 19.2974C9.55688 19.4521 9.49542 19.6006 9.38605 19.71C9.27673 19.8193 9.12842 19.8804 8.97375 19.8804C8.81909 19.8804 8.67078 19.8193 8.5614 19.71C8.45203 19.6006 8.39062 19.4521 8.39062 19.2974C8.39056 19.2192 8.40619 19.1421 8.43658 19.0703C8.46692 18.9985 8.51141 18.9336 8.56732 18.8789C8.62329 18.8247 8.68958 18.7822 8.76227 18.7539C8.83496 18.7256 8.91266 18.7119 8.9906 18.7144ZM17.625 18.7407C17.7767 18.7451 17.9207 18.8081 18.0265 18.917C18.1322 19.0259 18.1913 19.1719 18.1912 19.3237C18.1912 19.4785 18.1298 19.6265 18.0204 19.7358C17.9111 19.8452 17.7628 19.9067 17.6081 19.9067C17.4535 19.9067 17.3051 19.8452 17.1958 19.7358C17.0864 19.6265 17.025 19.4785 17.025 19.3237C17.025 19.2456 17.0406 19.1685 17.0709 19.0967C17.1013 19.0249 17.1458 18.9595 17.2017 18.9053C17.2576 18.8511 17.324 18.8081 17.3967 18.7798C17.4694 18.752 17.547 18.7383 17.625 18.7407Z" fill="#000000" fill-opacity="1.000000" fill-rule="nonzero"/>
		<path id="Vector" d="M21.69 13.3032C21.69 15.5225 20.8084 17.6509 19.2391 19.2202C17.6697 20.7896 15.5413 21.6714 13.3219 21.6714C11.1025 21.6714 8.97406 20.7896 7.40472 19.2202C5.83539 17.6509 4.9538 15.5225 4.9538 13.3032C4.9538 11.084 5.83539 8.95557 7.40472 7.38623C8.97406 5.81689 11.1025 4.93506 13.3219 4.93506C15.5413 4.93506 17.6697 5.81689 19.2391 7.38623C20.8084 8.95557 21.69 11.084 21.69 13.3032ZM21.5325 12.4951L22.8375 13.3032L21.5325 14.1113L22.6538 15.1597L21.2175 15.6978L22.1138 16.9443L20.5969 17.1919L21.2344 18.5908L19.6988 18.5361L20.0513 20.0327L18.5551 19.6802L18.6094 21.2158L17.2106 20.5781L16.9631 22.0952L15.7162 21.1987L15.1782 22.6353L14.13 21.5137L13.3219 22.8188L12.5138 21.5137L11.4656 22.6353L10.9276 21.1987L9.68066 22.0952L9.43317 20.5781L8.03442 21.2158L8.08875 19.6802L6.59253 20.0327L6.94501 18.5361L5.40942 18.5908L6.04688 17.1919L4.53003 16.9443L5.42627 15.6978L3.99005 15.1597L5.11127 14.1113L3.80627 13.3032L5.11127 12.4951L3.99005 11.4468L5.42627 10.9087L4.53003 9.66211L6.04688 9.41455L5.40942 8.01562L6.94501 8.07031L6.59253 6.57373L8.08875 6.92627L8.03442 5.39062L9.43317 6.02832L9.68066 4.51123L10.9276 5.40771L11.4656 3.97119L12.5138 5.09277L13.3219 3.7876L14.13 5.09277L15.1782 3.97119L15.7162 5.40771L16.9631 4.51123L17.2106 6.02832L18.6094 5.39062L18.5551 6.92627L20.0513 6.57373L19.6988 8.07031L21.2344 8.01562L20.5969 9.41455L22.1138 9.66211L21.2175 10.9087L22.6538 11.4468L21.5325 12.4951Z" fill="#000000" fill-opacity="1.000000" fill-rule="evenodd"/>
		<path id="Vector" d="M19.2391 19.2202C17.6697 20.7896 15.5413 21.6714 13.3219 21.6714C11.1025 21.6714 8.97406 20.7896 7.40472 19.2202C5.83539 17.6509 4.9538 15.5225 4.9538 13.3032C4.9538 11.084 5.83539 8.95557 7.40472 7.38623C8.97406 5.81689 11.1025 4.93506 13.3219 4.93506C15.5413 4.93506 17.6697 5.81689 19.2391 7.38623C20.8084 8.95557 21.69 11.084 21.69 13.3032C21.69 15.5225 20.8084 17.6509 19.2391 19.2202ZM22.8375 13.3032L21.5325 14.1113L22.6538 15.1597L21.2175 15.6978L22.1138 16.9443L20.5969 17.1919L21.2344 18.5908L19.6988 18.5361L20.0513 20.0327L18.5551 19.6802L18.6094 21.2158L17.2106 20.5781L16.9631 22.0952L15.7162 21.1987L15.1782 22.6353L14.13 21.5137L13.3219 22.8188L12.5138 21.5137L11.4656 22.6353L10.9276 21.1987L9.68066 22.0952L9.43317 20.5781L8.03442 21.2158L8.08875 19.6802L6.59253 20.0327L6.94501 18.5361L5.40942 18.5908L6.04688 17.1919L4.53003 16.9443L5.42627 15.6978L3.99005 15.1597L5.11127 14.1113L3.80627 13.3032L5.11127 12.4951L3.99005 11.4468L5.42627 10.9087L4.53003 9.66211L6.04688 9.41455L5.40942 8.01562L6.94501 8.07031L6.59253 6.57373L8.08875 6.92627L8.03442 5.39062L9.43317 6.02832L9.68066 4.51123L10.9276 5.40771L11.4656 3.97119L12.5138 5.09277L13.3219 3.7876L14.13 5.09277L15.1782 3.97119L15.7162 5.40771L16.9631 4.51123L17.2106 6.02832L18.6094 5.39062L18.5551 6.92627L20.0513 6.57373L19.6988 8.07031L21.2344 8.01562L20.5969 9.41455L22.1138 9.66211L21.2175 10.9087L22.6538 11.4468L21.5325 12.4951L22.8375 13.3032Z" stroke="#000000" stroke-opacity="1.000000" stroke-width="3.000000" stroke-linejoin="round"/>
	</g>
</svg>
