<svg width="27.000000" height="27.000000" viewBox="0 0 27 27" fill="none" xmlns="http://www.w3.org/2000/svg" xmlns:xlink="http://www.w3.org/1999/xlink">
	<desc>
			Created with Pixso.
	</desc>
	<defs>
		<clipPath id="clip1_909">
			<rect id="Frame" width="27.000000" height="27.000000" fill="white" fill-opacity="0"/>
		</clipPath>
	</defs>
	<g clip-path="url(#clip1_909)">
		<path id="Vector" d="M25.2661 3.56982C22.2661 -0.0224609 16.2936 -1.0752 12 1.18994L4.43121 5.21729C2.367 6.29248 0.935791 8.0542 0.522949 10.0449C0.165161 11.7153 0.467896 13.4316 1.43121 14.9189C0.770691 15.7427 0.330322 16.6577 0.137634 17.6187C-0.302734 19.6553 0.275269 21.7603 1.70642 23.4307C4.73395 27.0229 10.679 28.0757 14.9725 25.8105L22.5413 21.8062C24.6055 20.7305 26.0367 18.9688 26.4496 16.978C26.8074 15.3076 26.5046 13.5918 25.5413 12.1045C26.2018 11.2808 26.6422 10.3652 26.8349 9.4043C27.3028 7.34521 26.7248 5.24023 25.2661 3.56982Z" fill="#FF3E00" fill-opacity="1.000000" fill-rule="nonzero"/>
		<path id="Vector" d="M11.2569 23.7739C8.80731 24.2998 6.24768 23.499 4.81653 21.7832C3.93579 20.7764 3.60553 19.5176 3.85321 18.2822C3.90826 18.0762 3.96332 17.8931 4.01837 17.6875L4.15594 17.3213L4.54126 17.5498C5.44952 18.0991 6.44037 18.5112 7.51373 18.7856L7.789 18.8545L7.76147 19.083C7.73395 19.4033 7.84406 19.7466 8.06421 20.021C8.50458 20.5474 9.27521 20.7993 10.0184 20.6392C10.1835 20.5933 10.3486 20.5474 10.4862 20.479L18.0275 16.4746C18.4128 16.2686 18.6605 15.9712 18.7431 15.605C18.8257 15.2388 18.7156 14.8501 18.4679 14.5527C18.0275 14.0264 17.2569 13.7974 16.5137 13.9575C16.3486 14.0034 16.1835 14.0493 16.0459 14.1177L13.1559 15.6509C12.688 15.9023 12.1652 16.0854 11.6147 16.2002C9.16516 16.7261 6.60553 15.9253 5.17432 14.2095C4.32111 13.2026 3.96332 11.9438 4.23853 10.7085C4.48621 9.51855 5.36694 8.44336 6.60553 7.80273L14.1743 3.79834C14.6422 3.54688 15.1652 3.36377 15.7156 3.22607C18.1652 2.7002 20.7248 3.50098 22.1559 5.2168C23.0367 6.22363 23.3669 7.48242 23.1193 8.71777C23.0642 8.92383 23.0092 9.10693 22.9266 9.3125L22.789 9.67871L22.4037 9.4502C21.4954 8.90088 20.5046 8.48877 19.4312 8.21436L19.1559 8.146L19.1835 7.91699C19.211 7.59668 19.1009 7.25342 18.8807 6.979C18.4404 6.45264 17.6697 6.22363 16.9266 6.38379C16.7615 6.42969 16.5963 6.47559 16.4587 6.54395L8.91742 10.5483C8.5321 10.7544 8.28442 11.0518 8.20184 11.418C8.11926 11.7837 8.22937 12.1729 8.47705 12.4702C8.91742 12.9966 9.68805 13.2256 10.4312 13.0654C10.5963 13.0195 10.7615 12.9736 10.8991 12.9053L13.789 11.3721C14.2569 11.1206 14.7798 10.9375 15.3303 10.7998C17.7798 10.2739 20.3394 11.0747 21.7706 12.7905C22.6514 13.7974 22.9816 15.0562 22.7339 16.2915C22.4862 17.4814 21.6055 18.5566 20.3669 19.1973L12.7982 23.2017C12.3303 23.4536 11.8073 23.6362 11.2569 23.7739Z" fill="#FFFFFF" fill-opacity="1.000000" fill-rule="nonzero"/>
	</g>
</svg>
